HIERARCHY
ROOT Hips
{
	OFFSET 0.00000 0.00000 0.00000
	CHANNELS 6 Xposition Yposition Zposition Zrotation Yrotation Xrotation 
	JOINT LHipJoint
	{
		OFFSET 0 0 0
		CHANNELS 3 Zrotation Yrotation Xrotation
		JOINT LeftUpLeg
		{
			OFFSET 1.75344 -1.53157 0.77399
			CHANNELS 3 Zrotation Yrotation Xrotation
			JOINT LeftLeg
			{
				OFFSET 2.25415 -6.19323 0.00000
				CHANNELS 3 Zrotation Yrotation Xrotation
				JOINT LeftFoot
				{
					OFFSET 2.30342 -6.32861 0.00000
					CHANNELS 3 Zrotation Yrotation Xrotation
					JOINT LeftToeBase
					{
						OFFSET 0.10958 -0.30108 1.49206
						CHANNELS 3 Zrotation Yrotation Xrotation
						End Site
						{
							OFFSET 0.00000 -0.00000 0.77783
						}
					}
				}
			}
		}
	}
	JOINT RHipJoint
	{
		OFFSET 0 0 0
		CHANNELS 3 Zrotation Yrotation Xrotation
		JOINT RightUpLeg
		{
			OFFSET -1.81912 -1.53156 0.77399
			CHANNELS 3 Zrotation Yrotation Xrotation
			JOINT RightLeg
			{
				OFFSET -2.22882 -6.12365 0.00000
				CHANNELS 3 Zrotation Yrotation Xrotation
				JOINT RightFoot
				{
					OFFSET -2.21943 -6.09785 0.00000
					CHANNELS 3 Zrotation Yrotation Xrotation
					JOINT RightToeBase
					{
						OFFSET -0.18931 -0.52012 1.59379
						CHANNELS 3 Zrotation Yrotation Xrotation
						End Site
						{
							OFFSET -0.00000 -0.00000 0.84686
						}
					}
				}
			}
		}
	}
	JOINT LowerBack
	{
		OFFSET 0 0 0
		CHANNELS 3 Zrotation Yrotation Xrotation
		JOINT Spine
		{
			OFFSET -0.00200 1.66634 -0.14248
			CHANNELS 3 Zrotation Yrotation Xrotation
			JOINT Spine1
			{
				OFFSET -0.00875 1.64542 0.09514
				CHANNELS 3 Zrotation Yrotation Xrotation
				JOINT Neck
				{
					OFFSET 0 0 0
					CHANNELS 3 Zrotation Yrotation Xrotation
					JOINT Neck1
					{
						OFFSET 0.02257 1.59605 0.00839
						CHANNELS 3 Zrotation Yrotation Xrotation
						JOINT Head
						{
							OFFSET -0.10214 1.57530 -0.23335
							CHANNELS 3 Zrotation Yrotation Xrotation
							End Site
							{
								OFFSET -0.03588 1.60717 -0.08062
							}
						}
					}
				}
				JOINT LeftShoulder
				{
					OFFSET 0 0 0
					CHANNELS 3 Zrotation Yrotation Xrotation
					JOINT LeftArm
					{
						OFFSET 2.54983 1.10186 0.40078
						CHANNELS 3 Zrotation Yrotation Xrotation
						JOINT LeftForeArm
						{
							OFFSET 4.28840 -0.00000 0.00000
							CHANNELS 3 Zrotation Yrotation Xrotation
							JOINT LeftHand
							{
								OFFSET 3.06552 -0.00000 -0.00000
								CHANNELS 3 Zrotation Yrotation Xrotation
								JOINT LeftFingerBase
								{
									OFFSET 0 0 0
									CHANNELS 3 Zrotation Yrotation Xrotation
									JOINT LeftHandIndex1
									{
										OFFSET 0.75304 -0.00000 0.00000
										CHANNELS 3 Zrotation Yrotation Xrotation
										End Site
										{
											OFFSET 0.60712 -0.00000 0.00000
										}
									}
								}
								JOINT LThumb
								{
									OFFSET 0 0 0
									CHANNELS 3 Zrotation Yrotation Xrotation
									End Site
									{
										OFFSET 0.61639 -0.00000 0.61639
									}
								}
							}
						}
					}
				}
				JOINT RightShoulder
				{
					OFFSET 0 0 0
					CHANNELS 3 Zrotation Yrotation Xrotation
					JOINT RightArm
					{
						OFFSET -2.60909 1.35448 0.21802
						CHANNELS 3 Zrotation Yrotation Xrotation
						JOINT RightForeArm
						{
							OFFSET -4.52172 -0.00000 -0.00000
							CHANNELS 3 Zrotation Yrotation Xrotation
							JOINT RightHand
							{
								OFFSET -2.89140 -0.00000 0.00000
								CHANNELS 3 Zrotation Yrotation Xrotation
								JOINT RightFingerBase
								{
									OFFSET 0 0 0
									CHANNELS 3 Zrotation Yrotation Xrotation
									JOINT RightHandIndex1
									{
										OFFSET -0.68054 -0.00000 0.00000
										CHANNELS 3 Zrotation Yrotation Xrotation
										End Site
										{
											OFFSET -0.54867 -0.00000 0.00000
										}
									}
								}
								JOINT RThumb
								{
									OFFSET 0 0 0
									CHANNELS 3 Zrotation Yrotation Xrotation
									End Site
									{
										OFFSET -0.55705 -0.00000 0.55705
									}
								}
							}
						}
					}
				}
			}
		}
	}
}
MOTION
Frames: 5
Frame Time: .0083333
8.9200 13.9643 22.6010 -177.7550 0.9419 193.3180 0.0000 0.0000 0.0000 -14.9736 -19.9466 -34.6324 11.2797 18.0693 63.6867 4.2389 -2.1869 -38.5929 2.8457 -10.4410 -30.4169 0.0000 0.0000 0.0000 24.9904 20.1401 -29.6361 -9.7739 -17.2807 58.7298 -2.8824 -17.1194 -41.5347 -0.1005 -2.0447 5.6293 1.5032 1.3402 13.8142 0.2566 2.1291 -4.0042 -1.0812 0.9104 -12.1417 -6.3875 -2.4963 -8.7021 6.6735 -3.1183 -4.5196 3.1805 -1.6028 0.2920 0.0000 0.0000 0.0000 -89.3423 7.1536 21.0478 12.9737 -21.2487 -2.4437 -0.0000 -0.0000 32.2476 10.0563 -33.7300 -5.6240 -7.1250 0.0000 -0.0000 -12.3491 -3.4647 13.3798 0.0000 0.0000 0.0000 86.5613 -4.6688 35.3830 -13.7108 22.3197 -2.7173 0.0000 0.0000 36.1858 -17.7963 -59.5743 15.4715 7.1250 -0.0000 -0.0000 84.2291 77.9800 96.3281
8.9261 13.9798 22.5364 -177.6810 1.0393 193.2590 0.0000 0.0000 0.0000 -15.1024 -19.4966 -33.8474 11.0507 17.9598 62.9460 4.3418 -2.5010 -39.0057 2.7930 -10.3522 -30.1251 0.0000 0.0000 0.0000 25.2414 19.8372 -29.0218 -9.6030 -17.1805 58.1532 -2.8496 -17.0463 -41.3328 -0.1032 -2.0711 5.7021 1.3667 1.4216 13.3649 0.3134 2.2113 -3.9473 -0.9465 0.9683 -11.8130 -6.4077 -2.5786 -9.2256 6.5447 -3.2053 -4.1515 3.1303 -1.6363 0.5050 -0.0000 -0.0000 0.0000 -89.5877 6.8924 20.1767 12.7550 -20.9272 -2.3651 -0.0000 -0.0000 34.0402 10.7299 -33.6348 -5.9918 -7.1250 0.0000 -0.0000 -11.9715 -3.4681 12.9528 -0.0000 -0.0000 0.0000 86.5682 -4.4161 35.0602 -13.4976 22.0120 -2.6369 0.0000 0.0000 36.8999 -17.8674 -60.1911 15.6269 7.1250 -0.0000 -0.0000 86.9771 77.9378 99.2296
8.9311 14.0056 22.4702 -177.7180 1.0271 193.1670 0.0000 0.0000 0.0000 -15.4237 -19.0018 -32.9438 10.7477 17.8094 61.9596 4.3698 -2.3517 -39.1701 2.9300 -10.5808 -30.8789 0.0000 0.0000 0.0000 25.3798 19.2663 -28.3531 -9.3620 -17.0351 57.3338 -2.8222 -16.8904 -41.0926 -0.1033 -2.0726 5.7063 1.1827 1.4553 12.6498 0.3590 2.2113 -3.7344 -0.7666 0.9932 -11.1544 -6.5584 -2.6119 -9.7421 6.5604 -3.2231 -3.9971 3.1592 -1.6403 0.6493 0.0000 0.0000 0.0000 -89.8100 6.3374 19.6412 12.5056 -20.5585 -2.2767 -0.0000 -0.0000 35.7545 11.2522 -33.2525 -6.2259 -7.1250 0.0000 -0.0000 -11.6517 -3.1706 12.5346 0.0000 0.0000 0.0000 86.5918 -3.9520 34.4936 -13.2709 21.6828 -2.5525 0.0000 0.0000 38.2035 -17.1036 -60.5040 14.9935 7.1250 -0.0000 -0.0000 87.5026 77.6458 100.0826
8.9356 14.0541 22.3915 -177.7610 0.8357 192.9050 0.0000 0.0000 0.0000 -15.8435 -18.5184 -31.6881 10.3667 17.6110 60.7071 4.3083 -1.6004 -39.0591 3.2990 -11.1641 -32.8352 0.0000 0.0000 0.0000 25.5909 18.4080 -27.3217 -9.0206 -16.8209 56.1613 -2.8080 -16.6618 -40.8573 -0.0988 -2.0268 5.5799 1.0064 1.3537 11.9093 0.4377 2.0377 -3.5208 -0.5197 0.9341 -10.4884 -6.4953 -2.5862 -10.1571 6.3816 -3.1752 -3.6547 3.0841 -1.6095 0.8237 -0.0000 -0.0000 0.0000 -90.1378 5.9575 18.9570 12.2845 -20.2299 -2.1997 -0.0000 -0.0000 37.5421 11.0477 -32.6063 -6.0060 -7.1250 0.0000 -0.0000 -11.7129 -2.5078 12.4732 -0.0000 -0.0000 0.0000 86.6055 -3.7188 34.2492 -13.0940 21.4248 -2.4875 0.0000 0.0000 39.5207 -16.5685 -60.7756 14.5552 7.1250 -0.0000 -0.0000 88.0846 77.4362 100.9072
8.9380 14.1198 22.2968 -177.7390 0.6883 192.4280 0.0000 0.0000 0.0000 -16.2748 -17.9892 -30.0227 9.9179 17.3634 59.2135 4.2445 -1.2580 -38.8445 3.4000 -11.3160 -33.3532 0.0000 0.0000 0.0000 25.9415 17.4328 -25.7890 -8.5837 -16.5322 54.6389 -2.7563 -16.4697 -40.4766 -0.0814 -1.8400 5.0637 0.8772 1.2421 12.4129 0.4843 1.8954 -3.9822 -0.3873 0.8714 -11.3117 -6.1131 -2.5882 -10.4117 5.8952 -3.1644 -2.5756 2.8442 -1.5810 1.1994 -0.0000 -0.0000 0.0000 -90.2921 7.0525 18.9370 12.3562 -20.3367 -2.2245 -0.0000 -0.0000 38.5252 10.4140 -32.2062 -5.5944 -7.1250 0.0000 -0.0000 -12.0364 -2.0263 12.7349 -0.0000 -0.0000 0.0000 86.7307 -4.7393 34.2716 -12.9767 21.2530 -2.4448 0.0000 0.0000 40.5057 -16.4470 -61.2137 14.5058 7.1250 -0.0000 -0.0000 89.7578 77.3326 102.7406
